<?xml version="1.0"?>
<svg xmlns="http://www.w3.org/2000/svg" xmlns:xlink="http://www.w3.org/1999/xlink" xmlns:svgjs="http://svgjs.com/svgjs" version="1.1" width="512" height="512" x="0" y="0" viewBox="0 0 500 500" style="enable-background:new 0 0 512 512" xml:space="preserve" class=""><g><link type="text/css" rel="stylesheet" id="dark-mode-custom-link"/><link type="text/css" rel="stylesheet" id="dark-mode-general-link"/><style lang="en" type="text/css" id="dark-mode-custom-style"/><style lang="en" type="text/css" id="dark-mode-native-style"/><style lang="en" type="text/css" id="dark-mode-native-sheet"/><g xmlns="http://www.w3.org/2000/svg" id="Layer_2" data-name="Layer 2"><g id="_07.Circle_Cutout_Black" data-name="07.Circle_Cutout_Black"><g id="m"><path d="m250 0c-138.071 0-250 111.929-250 250 0 138.071 111.929 250 250 250 138.071 0 250-111.929 250-250 0-138.071-111.929-250-250-250zm158.4 345.14h-57.36v-102.23q0-18.21-9.61-28.17-9.615-9.945-26.49-9.95t-26.48 9.95q-9.615 9.96-9.61 28.17v102.23h-57.36v-102.23q0-18.21-9.61-28.17-9.615-9.945-26.49-9.95t-26.48 9.95q-9.615 9.96-9.62 28.17v102.23h-57.69v-188.26h57.69v23.62a61.772 61.772 0 0 1 22.95-18.72q14.16-6.915 32.05-6.92 21.24 0 37.95 9.11a65.309 65.309 0 0 1 26.15 25.98 75.818 75.818 0 0 1 26.65-25.31 72.006 72.006 0 0 1 36.77-9.78q35.085 0 55.84 21.26t20.75 59.04z" fill="#d43076" data-original="#000000" class=""/></g></g></g></g></svg>
